<?xml version="1.0" encoding="utf-8"?>
<!-- Svg Vector Icons : http://www.onlinewebfonts.com/icon -->
<!DOCTYPE svg PUBLIC "-//W3C//DTD SVG 1.1//EN" "http://www.w3.org/Graphics/SVG/1.1/DTD/svg11.dtd">
<svg version="1.1" xmlns="http://www.w3.org/2000/svg" xmlns:xlink="http://www.w3.org/1999/xlink" x="0px" y="0px" viewBox="0 0 256 256" enable-background="new 0 0 256 256" xml:space="preserve">
<metadata> Svg Vector Icons : http://www.onlinewebfonts.com/icon </metadata>
<g><g><path fill="#000000" d="M246,51.4c0-10.6-8.1-18.4-18.7-18.4c-5.8,0-10.9,3.4-10.9,3.4C166.9,62.9,88,152.4,88,152.4c-5.8-4.9-40.9-37.1-40.9-37.1s0,0-0.3,0l-0.3-0.3l0,0c-4.6-3.4-9.2-6-15-6c-12.1,0-21.6,9.8-21.6,21.6c0,6.6,4.6,13.2,7.8,16.4c22.2,21.3,46.3,49.8,54.4,61.9c5.2,7.8,11.2,14.1,20.7,14.1c6.6,0,11.8-2.9,15.8-7.5c1.4-1.7,3.2-3.7,4.9-6.6C127.4,186.4,175.5,113,232.2,71C240.2,64.7,246,60.4,246,51.4z"/></g></g>
</svg>